<?xml version="1.0" encoding="utf-8"?>
<!-- Generator: Adobe Illustrator 23.1.0, SVG Export Plug-In . SVG Version: 6.00 Build 0)  -->
<svg version="1.1" id="Capa_1" xmlns="http://www.w3.org/2000/svg" xmlns:xlink="http://www.w3.org/1999/xlink" x="0px" y="0px"
	 viewBox="0 0 272 273" style="enable-background:new 0 0 272 273;" xml:space="preserve">
<style type="text/css">
	.st0{fill:#009DE1;}
	.st1{fill:#FFFFFF;}
</style>
<circle class="st0" cx="136.5" cy="136.8" r="136"/>
<g>
	<path class="st1" d="M105,87.3h65l6-18c0,0,6-11-8.5-11c-13.5,0-16.5,0-16.5,0s0-9-14-9c-14,0-14,9-14,9h-18c0,0-11,1-7,11
		S105,87.3,105,87.3z"/>
	<path class="st1" d="M172,98.3h-69c-91,101-17,126-17,126h104C256,191.3,172,98.3,172,98.3z M141.5,189.9v9.6h-9.2v-8.9
		c-6.3-0.3-12.4-2-16-4l2.8-11c4,2.2,9.5,4.1,15.6,4.1c5.4,0,9-2.1,9-5.8c0-3.6-3-5.8-10-8.2c-10.1-3.4-17-8.1-17-17.2
		c0-8.3,5.8-14.8,15.9-16.8v-8.9h9.2v8.3c6.3,0.3,10.5,1.6,13.7,3.1l-2.7,10.6c-2.4-1-6.8-3.2-13.6-3.2c-6.1,0-8.1,2.6-8.1,5.3
		c0,3.1,3.3,5.1,11.3,8.1c11.2,4,15.7,9.1,15.7,17.6C158.3,180.8,152.3,188,141.5,189.9z"/>
</g>
</svg>
