<?xml version="1.0" encoding="utf-8"?>
<!-- Generator: Adobe Illustrator 23.1.0, SVG Export Plug-In . SVG Version: 6.00 Build 0)  -->
<svg version="1.1" id="Capa_1" xmlns="http://www.w3.org/2000/svg" xmlns:xlink="http://www.w3.org/1999/xlink" x="0px" y="0px"
	 viewBox="0 0 272 273" style="enable-background:new 0 0 272 273;" xml:space="preserve">
<style type="text/css">
	.st0{fill:#009DE1;}
	.st1{fill:#FFFFFF;}
</style>
<circle class="st0" cx="136" cy="136.7" r="136"/>
<g>
	<g>
		<path class="st1" d="M39.8,101.5l0.1,0.2L191,59.4L189,52c-1.8-6.4-8.4-10.1-14.8-8.3L46,79.3C39.7,81,35.9,87.7,37.7,94
			L39.8,101.5z"/>
		<path class="st1" d="M208.8,123.3l-12.6-45.5l-151,43l12.4,44.5c1.8,6.4,8.4,10.1,14.8,8.3l128.1-35.6
			C206.8,136.3,210.5,129.7,208.8,123.3z"/>
	</g>
	<g>
		<path class="st1" d="M89.7,221.2c-8,0-14.5-6.5-14.5-14.5v-74c0-8,6.5-14.5,14.5-14.5h133c8,0,14.5,6.5,14.5,14.5v74
			c0,8-6.5,14.5-14.5,14.5H89.7z M220.2,197.2v-1h-22v1H220.2z M184.6,197.2v-1h-22v1H184.6z M148.4,197.2v-1h-21v1H148.4z
			 M113.2,197.2v-1h-22v1H113.2z M197.7,160.2c-5.2,0-9.5,4.3-9.5,9.5s4.3,9.5,9.5,9.5h13c5.2,0,9.5-4.3,9.5-9.5s-4.3-9.5-9.5-9.5
			H197.7z"/>
		<path class="st0" d="M222.7,120.7c6.6,0,12,5.4,12,12v74c0,6.6-5.4,12-12,12h-133c-6.6,0-12-5.4-12-12v-74c0-6.6,5.4-12,12-12
			H222.7 M197.7,181.7h13c6.6,0,12-5.4,12-12c0-6.6-5.4-12-12-12h-13c-6.6,0-12,5.4-12,12C185.7,176.3,191.1,181.7,197.7,181.7
			 M195.7,199.7h27v-6h-27V199.7 M160.1,199.7h27v-6h-27V199.7 M124.9,199.7h26v-6h-26V199.7 M88.7,199.7h27v-6h-27V199.7
			 M222.7,115.7h-133c-9.4,0-17,7.6-17,17v74c0,9.4,7.6,17,17,17h133c9.4,0,17-7.6,17-17v-74C239.7,123.3,232.1,115.7,222.7,115.7
			L222.7,115.7z M197.7,176.7c-3.9,0-7-3.1-7-7s3.1-7,7-7h13c3.9,0,7,3.1,7,7s-3.1,7-7,7H197.7L197.7,176.7z"/>
	</g>
</g>
</svg>
